# 3ds Max Wavefront OBJ Exporter v0.97b - (c)2007 guruware
# ÆÄÀÏ »ý¼ºµÊ: 03.05.2020 15:35:32

mtllib Plane.mtl

#
# object Plane001
#

v  -23.7513 0.0000 -68.6025
v  -23.7513 0.0000 62.4679
v  23.4734 0.0000 62.4679
v  23.4734 0.0000 -68.6025
# 4 vertices

vn 0.0000 1.0000 -0.0000
# 1 vertex normals

vt 0.0000 1.0000 0.0000
vt 0.0000 0.0000 0.0000
vt 1.0000 0.0000 0.0000
vt 1.0000 1.0000 0.0000
# 4 texture coords

g Plane001
usemtl Material__26
s 1
f 1/1/1 2/2/1 3/3/1 4/4/1 
# 1 polygons

#
# object Plane002
#

v  23.4734 0.0000 62.4679
v  23.4734 0.0000 -68.6025
v  -23.7513 0.0000 -68.6025
v  -23.7513 0.0000 62.4679
# 4 vertices

vn 0.0000 1.0000 -0.0000
# 1 vertex normals

vt 0.0000 1.0000 0.0000
vt 0.0000 0.0000 0.0000
vt 1.0000 0.0000 0.0000
vt 1.0000 1.0000 0.0000
# 4 texture coords

g Plane002
usemtl Material__26
s 1
f 5/5/2 6/6/2 7/7/2 8/8/2 
# 1 polygons

